<?xml version="1.0" encoding="UTF-8"?>
<svg xmlns="http://www.w3.org/2000/svg" xmlns:xlink="http://www.w3.org/1999/xlink" width="375pt" height="374.999991pt" viewBox="0 0 375 374.999991" version="1.2">
<defs>
<clipPath id="clip1">
  <path d="M 88 220 L 203 220 L 203 373.375 L 88 373.375 Z M 88 220 "/>
</clipPath>
</defs>
<g id="surface1">
<rect x="0" y="0" width="375" height="374.999991" style="fill:rgb(100%,100%,100%);fill-opacity:1;stroke:none;"/>
<rect x="0" y="0" width="375" height="374.999991" style="fill:rgb(100%,100%,100%);fill-opacity:1;stroke:none;"/>
<rect x="0" y="0" width="375" height="374.999991" style="fill:rgb(73.728943%,42.349243%,14.509583%);fill-opacity:1;stroke:none;"/>
<path style=" stroke:none;fill-rule:nonzero;fill:rgb(98.039246%,86.669922%,21.958923%);fill-opacity:1;" d="M 225.21875 198.824219 C 225.285156 182.3125 211.96875 168.863281 195.421875 168.796875 C 178.910156 168.761719 165.492188 182.082031 165.425781 198.59375 C 165.425781 198.691406 165.425781 198.757812 165.425781 198.824219 C 165.359375 215.339844 178.710938 228.789062 195.222656 228.855469 C 211.738281 228.921875 225.152344 215.570312 225.21875 199.058594 C 225.21875 198.992188 225.21875 198.925781 225.21875 198.824219 "/>
<path style=" stroke:none;fill-rule:nonzero;fill:rgb(99.609375%,98.039246%,87.838745%);fill-opacity:1;" d="M 263.472656 112.933594 C 240.667969 123.519531 223.15625 142.960938 215 166.734375 C 226.484375 173.757812 233.34375 186.40625 232.976562 199.859375 C 249.023438 200.289062 264.703125 204.550781 278.785156 212.308594 C 291.671875 210.878906 304.289062 207.347656 316.039062 201.855469 C 332.453125 194.132812 344.273438 179.117188 347.867188 161.339844 C 351.496094 143.429688 360.882812 127.214844 374.601562 115.164062 C 375.101562 114.730469 375.132812 113.929688 374.699219 113.433594 C 374.566406 113.332031 374.433594 113.234375 374.265625 113.132812 C 339.210938 96.488281 298.5625 96.421875 263.4375 112.933594 L 263.472656 112.933594 "/>
<path style=" stroke:none;fill-rule:nonzero;fill:rgb(99.609375%,98.039246%,87.838745%);fill-opacity:1;" d="M 134.664062 107.472656 C 137.695312 132.441406 150.777344 155.082031 170.855469 170.195312 C 181.074219 161.4375 195.222656 158.84375 207.941406 163.371094 C 213.300781 148.222656 222.222656 134.605469 233.941406 123.621094 C 236.570312 110.902344 237.105469 97.851562 235.507812 84.96875 C 233.242188 66.957031 222.589844 51.078125 206.808594 42.152344 C 190.929688 33.199219 178.378906 19.25 171.152344 2.503906 C 170.886719 1.871094 170.1875 1.570312 169.554688 1.835938 C 169.390625 1.90625 169.257812 2.003906 169.121094 2.136719 C 142.457031 30.335938 129.804688 68.988281 134.664062 107.472656 "/>
<path style=" stroke:none;fill-rule:nonzero;fill:rgb(99.609375%,98.039246%,87.838745%);fill-opacity:1;" d="M 330.289062 343.480469 C 330.886719 343.8125 331.621094 343.613281 331.988281 343.046875 C 332.054688 342.914062 332.121094 342.746094 332.121094 342.582031 C 337.148438 304.09375 324.664062 265.375 298.0625 237.078125 C 280.949219 218.699219 257.078125 208.046875 231.945312 207.613281 C 228.78125 220.730469 218.894531 231.152344 205.976562 234.949219 C 210.539062 250.363281 211.304688 266.609375 208.308594 282.386719 C 213.632812 294.207031 220.890625 305.09375 229.78125 314.582031 C 242.164062 327.796875 260.109375 334.390625 278.121094 332.328125 C 296.265625 330.261719 314.574219 334.15625 330.289062 343.480469 "/>
<g clip-path="url(#clip1)" clip-rule="nonzero">
<path style=" stroke:none;fill-rule:nonzero;fill:rgb(99.609375%,98.039246%,87.838745%);fill-opacity:1;" d="M 95.914062 267.375 C 102.171875 255.988281 110.261719 245.734375 119.882812 236.976562 C 135.796875 235.015625 151.011719 229.222656 164.261719 220.132812 C 171.851562 231.253906 184.871094 237.445312 198.285156 236.378906 C 205.644531 260.414062 202.878906 286.417969 190.695312 308.390625 C 171.984375 342.414062 139.058594 366.25 100.90625 373.375 C 100.242188 373.476562 99.609375 373.042969 99.476562 372.375 C 99.441406 372.210938 99.441406 372.042969 99.507812 371.910156 C 103.503906 354.097656 101.539062 335.457031 93.984375 318.84375 C 86.425781 302.332031 87.15625 283.253906 95.914062 267.375 "/>
</g>
<path style=" stroke:none;fill-rule:nonzero;fill:rgb(99.609375%,98.039246%,87.838745%);fill-opacity:1;" d="M 160.535156 213.273438 C 139.925781 227.691406 114.359375 233.117188 89.6875 228.289062 C 51.570312 221 18.710938 197.027344 0.132812 162.9375 C -0.167969 162.371094 0.0351562 161.605469 0.632812 161.304688 C 0.765625 161.207031 0.933594 161.171875 1.097656 161.140625 C 19.277344 159.441406 36.386719 151.851562 49.839844 139.5 C 63.222656 127.25 81.597656 122.023438 99.410156 125.449219 C 112.160156 127.914062 124.445312 132.441406 135.730469 138.867188 C 142.523438 153.414062 152.742188 166.101562 165.460938 175.855469 C 157.238281 186.542969 155.375 200.824219 160.535156 213.273438 "/>
</g>
</svg>
